<?xml version="1.0" encoding="UTF-8"?><svg id="Layer_1" xmlns="http://www.w3.org/2000/svg" viewBox="0 0 110.17 3979.79"><defs><style>.cls-1{fill:#7743db;}</style></defs><g><path class="cls-1" d="M56.44,1883.73c-10.79-58-30.13-114.16-41.86-172-16.72-82.39-17.73-168.19-.39-250.45,16.81-79.94,57.81-162.83,78.64-241.82,18.48-70.05,26.09-146.53,3-214.34H0v1200H27.35c38.85-102.47,48.91-213.61,29.09-321.39h0Z"/><path class="cls-1" d="M27.35,0H0V1200H95.83c23.09-67.81,15.48-144.29-3-214.34-20.83-78.99-61.83-161.88-78.64-241.82-17.34-82.26-16.33-168.06,.39-250.45,11.73-57.84,31.07-114,41.86-172C76.26,213.61,66.2,102.47,27.35,0Z"/></g><g><path class="cls-1" d="M56.44,3658.4c-10.79-58-30.13-114.16-41.86-172-16.72-82.39-17.73-168.19-.39-250.45,16.81-79.94,57.81-162.83,78.64-241.82,18.48-70.05,26.09-146.53,3-214.34H0v1200H27.35c38.85-102.47,48.91-213.61,29.09-321.39Z"/><path class="cls-1" d="M27.35,1774.67H0v1200H95.83c23.09-67.81,15.48-144.29-3-214.34-20.83-78.99-61.83-161.88-78.64-241.82-17.34-82.26-16.33-168.06,.39-250.45,11.73-57.84,31.07-114,41.86-172,19.82-107.78,9.76-218.92-29.09-321.39h0Z"/></g></svg>